<mxfile host="app.diagrams.net" agent="Mozilla/5.0 (Windows NT 10.0; Win64; x64) AppleWebKit/537.36 (KHTML, like Gecko) Chrome/131.0.0.0 Safari/537.36" version="24.8.6">
  <diagram name="Page-1" id="e7e014a7-5840-1c2e-5031-d8a46d1fe8dd">
    <mxGraphModel dx="880" dy="468" grid="1" gridSize="10" guides="1" tooltips="1" connect="1" arrows="1" fold="1" page="1" pageScale="1" pageWidth="1169" pageHeight="826" background="none" math="0" shadow="0">
      <root>
        <mxCell id="0" />
        <mxCell id="1" parent="0" />
        <mxCell id="2" value="" style="swimlane;whiteSpace=wrap;swimlaneLine=0;rounded=0;shadow=0;glass=0;" parent="1" vertex="1">
          <mxGeometry x="410" y="130" width="280" height="588" as="geometry" />
        </mxCell>
        <mxCell id="uCDqcRlj1Gseaw7TiQxv-46" value="Halaman dasboard" style="ellipse;whiteSpace=wrap;html=1;" vertex="1" parent="2">
          <mxGeometry x="10" y="273" width="90" height="51" as="geometry" />
        </mxCell>
        <mxCell id="uCDqcRlj1Gseaw7TiQxv-48" value="Menambahkan Transaksi" style="ellipse;whiteSpace=wrap;html=1;" vertex="1" parent="2">
          <mxGeometry x="160" y="120" width="90" height="51" as="geometry" />
        </mxCell>
        <mxCell id="uCDqcRlj1Gseaw7TiQxv-50" value="" style="endArrow=none;html=1;rounded=0;exitX=0.756;exitY=0.078;exitDx=0;exitDy=0;entryX=0;entryY=0.5;entryDx=0;entryDy=0;exitPerimeter=0;" edge="1" parent="2" source="uCDqcRlj1Gseaw7TiQxv-46" target="uCDqcRlj1Gseaw7TiQxv-48">
          <mxGeometry width="50" height="50" relative="1" as="geometry">
            <mxPoint x="150" y="330" as="sourcePoint" />
            <mxPoint x="200" y="280" as="targetPoint" />
          </mxGeometry>
        </mxCell>
        <mxCell id="uCDqcRlj1Gseaw7TiQxv-52" value="Mengedit Transaksi" style="ellipse;whiteSpace=wrap;html=1;" vertex="1" parent="2">
          <mxGeometry x="160" y="222" width="90" height="51" as="geometry" />
        </mxCell>
        <mxCell id="uCDqcRlj1Gseaw7TiQxv-54" value="Halaman dasboard" style="ellipse;whiteSpace=wrap;html=1;" vertex="1" parent="2">
          <mxGeometry x="160" y="420" width="90" height="51" as="geometry" />
        </mxCell>
        <mxCell id="uCDqcRlj1Gseaw7TiQxv-56" value="Mencetak Nota" style="ellipse;whiteSpace=wrap;html=1;" vertex="1" parent="2">
          <mxGeometry x="160" y="324" width="90" height="51" as="geometry" />
        </mxCell>
        <mxCell id="uCDqcRlj1Gseaw7TiQxv-58" value="" style="endArrow=none;html=1;rounded=0;exitX=0.944;exitY=0.275;exitDx=0;exitDy=0;exitPerimeter=0;entryX=0;entryY=0.5;entryDx=0;entryDy=0;" edge="1" parent="2" source="uCDqcRlj1Gseaw7TiQxv-46" target="uCDqcRlj1Gseaw7TiQxv-52">
          <mxGeometry width="50" height="50" relative="1" as="geometry">
            <mxPoint x="150" y="330" as="sourcePoint" />
            <mxPoint x="200" y="280" as="targetPoint" />
          </mxGeometry>
        </mxCell>
        <mxCell id="uCDqcRlj1Gseaw7TiQxv-59" value="" style="endArrow=none;html=1;rounded=0;exitX=0.967;exitY=0.667;exitDx=0;exitDy=0;exitPerimeter=0;entryX=0;entryY=0.5;entryDx=0;entryDy=0;" edge="1" parent="2" source="uCDqcRlj1Gseaw7TiQxv-46" target="uCDqcRlj1Gseaw7TiQxv-56">
          <mxGeometry width="50" height="50" relative="1" as="geometry">
            <mxPoint x="150" y="330" as="sourcePoint" />
            <mxPoint x="200" y="280" as="targetPoint" />
          </mxGeometry>
        </mxCell>
        <mxCell id="uCDqcRlj1Gseaw7TiQxv-60" value="" style="endArrow=none;html=1;rounded=0;exitX=0.744;exitY=0.922;exitDx=0;exitDy=0;exitPerimeter=0;entryX=0;entryY=0.5;entryDx=0;entryDy=0;" edge="1" parent="2" source="uCDqcRlj1Gseaw7TiQxv-46" target="uCDqcRlj1Gseaw7TiQxv-54">
          <mxGeometry width="50" height="50" relative="1" as="geometry">
            <mxPoint x="150" y="330" as="sourcePoint" />
            <mxPoint x="200" y="280" as="targetPoint" />
          </mxGeometry>
        </mxCell>
        <mxCell id="uCDqcRlj1Gseaw7TiQxv-45" value="Actor" style="shape=umlActor;verticalLabelPosition=bottom;verticalAlign=top;html=1;" vertex="1" parent="1">
          <mxGeometry x="310" y="398.5" width="30" height="60" as="geometry" />
        </mxCell>
        <mxCell id="uCDqcRlj1Gseaw7TiQxv-51" value="" style="endArrow=none;html=1;rounded=0;entryX=0;entryY=0.5;entryDx=0;entryDy=0;" edge="1" parent="1" source="uCDqcRlj1Gseaw7TiQxv-45" target="uCDqcRlj1Gseaw7TiQxv-46">
          <mxGeometry width="50" height="50" relative="1" as="geometry">
            <mxPoint x="560" y="460" as="sourcePoint" />
            <mxPoint x="610" y="410" as="targetPoint" />
          </mxGeometry>
        </mxCell>
      </root>
    </mxGraphModel>
  </diagram>
</mxfile>
